<?xml version="1.0" encoding="utf-8"?>
<!DOCTYPE svg>
<svg xmlns="http://www.w3.org/2000/svg" width="255" height="480">
<rect x="60" y="15" width="15" height="15" style="fill: rgb(207,178,143)" fill-opacity="1.000000"></rect>
<rect x="75" y="15" width="15" height="15" style="fill: rgb(213,184,148)" fill-opacity="1.000000"></rect>
<rect x="90" y="15" width="15" height="15" style="fill: rgb(224,193,155)" fill-opacity="1.000000"></rect>
<rect x="105" y="15" width="15" height="15" style="fill: rgb(243,208,167)" fill-opacity="1.000000"></rect>
<rect x="120" y="15" width="15" height="15" style="fill: rgb(248,213,171)" fill-opacity="1.000000"></rect>
<rect x="135" y="15" width="15" height="15" style="fill: rgb(255,220,177)" fill-opacity="1.000000"></rect>
<rect x="150" y="15" width="15" height="15" style="fill: rgb(248,213,171)" fill-opacity="1.000000"></rect>
<rect x="165" y="15" width="15" height="15" style="fill: rgb(243,208,167)" fill-opacity="1.000000"></rect>
<rect x="180" y="15" width="15" height="15" style="fill: rgb(239,206,166)" fill-opacity="1.000000"></rect>
<rect x="195" y="15" width="15" height="15" style="fill: rgb(236,203,164)" fill-opacity="1.000000"></rect>
<rect x="45" y="30" width="15" height="15" style="fill: rgb(207,178,143)" fill-opacity="1.000000"></rect>
<rect x="60" y="30" width="15" height="15" style="fill: rgb(213,184,148)" fill-opacity="1.000000"></rect>
<rect x="75" y="30" width="15" height="15" style="fill: rgb(224,193,155)" fill-opacity="1.000000"></rect>
<rect x="90" y="30" width="15" height="15" style="fill: rgb(236,203,164)" fill-opacity="1.000000"></rect>
<rect x="105" y="30" width="15" height="15" style="fill: rgb(239,206,166)" fill-opacity="1.000000"></rect>
<rect x="120" y="30" width="15" height="15" style="fill: rgb(243,208,167)" fill-opacity="1.000000"></rect>
<rect x="135" y="30" width="15" height="15" style="fill: rgb(248,213,171)" fill-opacity="1.000000"></rect>
<rect x="150" y="30" width="15" height="15" style="fill: rgb(255,220,177)" fill-opacity="1.000000"></rect>
<rect x="165" y="30" width="15" height="15" style="fill: rgb(248,213,171)" fill-opacity="1.000000"></rect>
<rect x="180" y="30" width="15" height="15" style="fill: rgb(243,208,167)" fill-opacity="1.000000"></rect>
<rect x="195" y="30" width="15" height="15" style="fill: rgb(239,206,166)" fill-opacity="1.000000"></rect>
<rect x="210" y="30" width="15" height="15" style="fill: rgb(236,203,164)" fill-opacity="1.000000"></rect>
<rect x="30" y="45" width="15" height="15" style="fill: rgb(207,178,143)" fill-opacity="1.000000"></rect>
<rect x="45" y="45" width="15" height="15" style="fill: rgb(213,184,148)" fill-opacity="1.000000"></rect>
<rect x="60" y="45" width="15" height="15" style="fill: rgb(224,193,155)" fill-opacity="1.000000"></rect>
<rect x="75" y="45" width="15" height="15" style="fill: rgb(236,203,164)" fill-opacity="1.000000"></rect>
<rect x="90" y="45" width="15" height="15" style="fill: rgb(236,203,164)" fill-opacity="1.000000"></rect>
<rect x="105" y="45" width="15" height="15" style="fill: rgb(236,203,164)" fill-opacity="1.000000"></rect>
<rect x="120" y="45" width="15" height="15" style="fill: rgb(239,206,166)" fill-opacity="1.000000"></rect>
<rect x="135" y="45" width="15" height="15" style="fill: rgb(243,208,167)" fill-opacity="1.000000"></rect>
<rect x="150" y="45" width="15" height="15" style="fill: rgb(248,213,171)" fill-opacity="1.000000"></rect>
<rect x="165" y="45" width="15" height="15" style="fill: rgb(255,220,177)" fill-opacity="1.000000"></rect>
<rect x="180" y="45" width="15" height="15" style="fill: rgb(248,213,171)" fill-opacity="1.000000"></rect>
<rect x="195" y="45" width="15" height="15" style="fill: rgb(243,208,167)" fill-opacity="1.000000"></rect>
<rect x="210" y="45" width="15" height="15" style="fill: rgb(239,206,166)" fill-opacity="1.000000"></rect>
<rect x="225" y="45" width="15" height="15" style="fill: rgb(236,203,164)" fill-opacity="1.000000"></rect>
<rect x="15" y="60" width="15" height="15" style="fill: rgb(207,178,143)" fill-opacity="1.000000"></rect>
<rect x="30" y="60" width="15" height="15" style="fill: rgb(213,184,148)" fill-opacity="1.000000"></rect>
<rect x="45" y="60" width="15" height="15" style="fill: rgb(224,193,155)" fill-opacity="1.000000"></rect>
<rect x="60" y="60" width="15" height="15" style="fill: rgb(236,203,164)" fill-opacity="1.000000"></rect>
<rect x="75" y="60" width="15" height="15" style="fill: rgb(236,203,164)" fill-opacity="1.000000"></rect>
<rect x="90" y="60" width="15" height="15" style="fill: rgb(236,203,164)" fill-opacity="1.000000"></rect>
<rect x="105" y="60" width="15" height="15" style="fill: rgb(236,203,164)" fill-opacity="1.000000"></rect>
<rect x="120" y="60" width="15" height="15" style="fill: rgb(239,206,166)" fill-opacity="1.000000"></rect>
<rect x="135" y="60" width="15" height="15" style="fill: rgb(243,208,167)" fill-opacity="1.000000"></rect>
<rect x="150" y="60" width="15" height="15" style="fill: rgb(248,213,171)" fill-opacity="1.000000"></rect>
<rect x="165" y="60" width="15" height="15" style="fill: rgb(255,220,177)" fill-opacity="1.000000"></rect>
<rect x="180" y="60" width="15" height="15" style="fill: rgb(248,213,171)" fill-opacity="1.000000"></rect>
<rect x="195" y="60" width="15" height="15" style="fill: rgb(243,208,167)" fill-opacity="1.000000"></rect>
<rect x="210" y="60" width="15" height="15" style="fill: rgb(239,206,166)" fill-opacity="1.000000"></rect>
<rect x="225" y="60" width="15" height="15" style="fill: rgb(236,203,164)" fill-opacity="1.000000"></rect>
<rect x="15" y="75" width="15" height="15" style="fill: rgb(207,178,143)" fill-opacity="1.000000"></rect>
<rect x="30" y="75" width="15" height="15" style="fill: rgb(213,184,148)" fill-opacity="1.000000"></rect>
<rect x="45" y="75" width="15" height="15" style="fill: rgb(224,193,155)" fill-opacity="1.000000"></rect>
<rect x="60" y="75" width="15" height="15" style="fill: rgb(236,203,164)" fill-opacity="1.000000"></rect>
<rect x="75" y="75" width="15" height="15" style="fill: rgb(236,203,164)" fill-opacity="1.000000"></rect>
<rect x="90" y="75" width="15" height="15" style="fill: rgb(236,203,164)" fill-opacity="1.000000"></rect>
<rect x="105" y="75" width="15" height="15" style="fill: rgb(255,219,191)" fill-opacity="1.000000"></rect>
<rect x="120" y="75" width="15" height="15" style="fill: rgb(255,219,191)" fill-opacity="1.000000"></rect>
<rect x="135" y="75" width="15" height="15" style="fill: rgb(255,219,191)" fill-opacity="1.000000"></rect>
<rect x="150" y="75" width="15" height="15" style="fill: rgb(255,219,191)" fill-opacity="1.000000"></rect>
<rect x="165" y="75" width="15" height="15" style="fill: rgb(255,219,191)" fill-opacity="1.000000"></rect>
<rect x="180" y="75" width="15" height="15" style="fill: rgb(255,219,191)" fill-opacity="1.000000"></rect>
<rect x="195" y="75" width="15" height="15" style="fill: rgb(255,219,191)" fill-opacity="1.000000"></rect>
<rect x="210" y="75" width="15" height="15" style="fill: rgb(239,206,166)" fill-opacity="1.000000"></rect>
<rect x="225" y="75" width="15" height="15" style="fill: rgb(236,203,164)" fill-opacity="1.000000"></rect>
<rect x="15" y="90" width="15" height="15" style="fill: rgb(207,178,143)" fill-opacity="1.000000"></rect>
<rect x="30" y="90" width="15" height="15" style="fill: rgb(213,184,148)" fill-opacity="1.000000"></rect>
<rect x="45" y="90" width="15" height="15" style="fill: rgb(224,193,155)" fill-opacity="1.000000"></rect>
<rect x="60" y="90" width="15" height="15" style="fill: rgb(236,203,164)" fill-opacity="1.000000"></rect>
<rect x="75" y="90" width="15" height="15" style="fill: rgb(236,203,164)" fill-opacity="1.000000"></rect>
<rect x="90" y="90" width="15" height="15" style="fill: rgb(255,219,191)" fill-opacity="1.000000"></rect>
<rect x="105" y="90" width="15" height="15" style="fill: rgb(255,219,191)" fill-opacity="1.000000"></rect>
<rect x="120" y="90" width="15" height="15" style="fill: rgb(255,219,191)" fill-opacity="1.000000"></rect>
<rect x="135" y="90" width="15" height="15" style="fill: rgb(255,219,191)" fill-opacity="1.000000"></rect>
<rect x="150" y="90" width="15" height="15" style="fill: rgb(255,219,191)" fill-opacity="1.000000"></rect>
<rect x="165" y="90" width="15" height="15" style="fill: rgb(255,219,191)" fill-opacity="1.000000"></rect>
<rect x="180" y="90" width="15" height="15" style="fill: rgb(255,219,191)" fill-opacity="1.000000"></rect>
<rect x="195" y="90" width="15" height="15" style="fill: rgb(255,219,191)" fill-opacity="1.000000"></rect>
<rect x="210" y="90" width="15" height="15" style="fill: rgb(255,219,191)" fill-opacity="1.000000"></rect>
<rect x="225" y="90" width="15" height="15" style="fill: rgb(236,203,164)" fill-opacity="1.000000"></rect>
<rect x="15" y="105" width="15" height="15" style="fill: rgb(207,178,143)" fill-opacity="1.000000"></rect>
<rect x="30" y="105" width="15" height="15" style="fill: rgb(213,184,148)" fill-opacity="1.000000"></rect>
<rect x="45" y="105" width="15" height="15" style="fill: rgb(224,193,155)" fill-opacity="1.000000"></rect>
<rect x="60" y="105" width="15" height="15" style="fill: rgb(236,203,164)" fill-opacity="1.000000"></rect>
<rect x="75" y="105" width="15" height="15" style="fill: rgb(255,219,191)" fill-opacity="1.000000"></rect>
<rect x="90" y="105" width="15" height="15" style="fill: rgb(255,219,191)" fill-opacity="1.000000"></rect>
<rect x="105" y="105" width="15" height="15" style="fill: rgb(255,219,191)" fill-opacity="1.000000"></rect>
<rect x="120" y="105" width="15" height="15" style="fill: rgb(255,219,191)" fill-opacity="1.000000"></rect>
<rect x="135" y="105" width="15" height="15" style="fill: rgb(255,219,191)" fill-opacity="1.000000"></rect>
<rect x="150" y="105" width="15" height="15" style="fill: rgb(255,219,191)" fill-opacity="1.000000"></rect>
<rect x="165" y="105" width="15" height="15" style="fill: rgb(255,219,191)" fill-opacity="1.000000"></rect>
<rect x="180" y="105" width="15" height="15" style="fill: rgb(255,219,191)" fill-opacity="1.000000"></rect>
<rect x="195" y="105" width="15" height="15" style="fill: rgb(255,219,191)" fill-opacity="1.000000"></rect>
<rect x="210" y="105" width="15" height="15" style="fill: rgb(255,219,191)" fill-opacity="1.000000"></rect>
<rect x="225" y="105" width="15" height="15" style="fill: rgb(236,203,164)" fill-opacity="1.000000"></rect>
<rect x="15" y="120" width="15" height="15" style="fill: rgb(207,178,143)" fill-opacity="1.000000"></rect>
<rect x="30" y="120" width="15" height="15" style="fill: rgb(213,184,148)" fill-opacity="1.000000"></rect>
<rect x="45" y="120" width="15" height="15" style="fill: rgb(224,193,155)" fill-opacity="1.000000"></rect>
<rect x="60" y="120" width="15" height="15" style="fill: rgb(236,203,164)" fill-opacity="1.000000"></rect>
<rect x="75" y="120" width="15" height="15" style="fill: rgb(255,219,191)" fill-opacity="1.000000"></rect>
<rect x="90" y="120" width="15" height="15" style="fill: rgb(178,153,123)" fill-opacity="1.000000"></rect>
<rect x="105" y="120" width="15" height="15" style="fill: rgb(178,153,123)" fill-opacity="1.000000"></rect>
<rect x="120" y="120" width="15" height="15" style="fill: rgb(255,219,191)" fill-opacity="1.000000"></rect>
<rect x="135" y="120" width="15" height="15" style="fill: rgb(255,219,191)" fill-opacity="1.000000"></rect>
<rect x="150" y="120" width="15" height="15" style="fill: rgb(255,219,191)" fill-opacity="1.000000"></rect>
<rect x="165" y="120" width="15" height="15" style="fill: rgb(255,219,191)" fill-opacity="1.000000"></rect>
<rect x="180" y="120" width="15" height="15" style="fill: rgb(178,153,123)" fill-opacity="1.000000"></rect>
<rect x="195" y="120" width="15" height="15" style="fill: rgb(178,153,123)" fill-opacity="1.000000"></rect>
<rect x="210" y="120" width="15" height="15" style="fill: rgb(255,219,191)" fill-opacity="1.000000"></rect>
<rect x="225" y="120" width="15" height="15" style="fill: rgb(236,203,164)" fill-opacity="1.000000"></rect>
<rect x="15" y="135" width="15" height="15" style="fill: rgb(207,178,143)" fill-opacity="1.000000"></rect>
<rect x="30" y="135" width="15" height="15" style="fill: rgb(213,184,148)" fill-opacity="1.000000"></rect>
<rect x="45" y="135" width="15" height="15" style="fill: rgb(224,193,155)" fill-opacity="1.000000"></rect>
<rect x="60" y="135" width="15" height="15" style="fill: rgb(236,203,164)" fill-opacity="1.000000"></rect>
<rect x="75" y="135" width="15" height="15" style="fill: rgb(255,219,191)" fill-opacity="1.000000"></rect>
<rect x="90" y="135" width="15" height="15" style="fill: rgb(255,219,191)" fill-opacity="1.000000"></rect>
<rect x="105" y="135" width="15" height="15" style="fill: rgb(255,219,191)" fill-opacity="1.000000"></rect>
<rect x="120" y="135" width="15" height="15" style="fill: rgb(255,219,191)" fill-opacity="1.000000"></rect>
<rect x="135" y="135" width="15" height="15" style="fill: rgb(255,219,191)" fill-opacity="1.000000"></rect>
<rect x="150" y="135" width="15" height="15" style="fill: rgb(255,219,191)" fill-opacity="1.000000"></rect>
<rect x="165" y="135" width="15" height="15" style="fill: rgb(255,219,191)" fill-opacity="1.000000"></rect>
<rect x="180" y="135" width="15" height="15" style="fill: rgb(255,219,191)" fill-opacity="1.000000"></rect>
<rect x="195" y="135" width="15" height="15" style="fill: rgb(255,219,191)" fill-opacity="1.000000"></rect>
<rect x="210" y="135" width="15" height="15" style="fill: rgb(255,219,191)" fill-opacity="1.000000"></rect>
<rect x="225" y="135" width="15" height="15" style="fill: rgb(236,203,164)" fill-opacity="1.000000"></rect>
<rect x="15" y="150" width="15" height="15" style="fill: rgb(207,178,143)" fill-opacity="1.000000"></rect>
<rect x="30" y="150" width="15" height="15" style="fill: rgb(213,184,148)" fill-opacity="1.000000"></rect>
<rect x="45" y="150" width="15" height="15" style="fill: rgb(224,193,155)" fill-opacity="1.000000"></rect>
<rect x="60" y="150" width="15" height="15" style="fill: rgb(236,203,164)" fill-opacity="1.000000"></rect>
<rect x="75" y="150" width="15" height="15" style="fill: rgb(255,219,191)" fill-opacity="1.000000"></rect>
<rect x="90" y="150" width="15" height="15" style="fill: rgb(255,219,191)" fill-opacity="1.000000"></rect>
<rect x="105" y="150" width="15" height="15" style="fill: rgb(80,109,133)" fill-opacity="1.000000"></rect>
<rect x="120" y="150" width="15" height="15" style="fill: rgb(255,219,191)" fill-opacity="1.000000"></rect>
<rect x="135" y="150" width="15" height="15" style="fill: rgb(255,219,191)" fill-opacity="1.000000"></rect>
<rect x="150" y="150" width="15" height="15" style="fill: rgb(255,219,191)" fill-opacity="1.000000"></rect>
<rect x="165" y="150" width="15" height="15" style="fill: rgb(255,219,191)" fill-opacity="1.000000"></rect>
<rect x="180" y="150" width="15" height="15" style="fill: rgb(80,109,133)" fill-opacity="1.000000"></rect>
<rect x="195" y="150" width="15" height="15" style="fill: rgb(255,219,191)" fill-opacity="1.000000"></rect>
<rect x="210" y="150" width="15" height="15" style="fill: rgb(255,219,191)" fill-opacity="1.000000"></rect>
<rect x="225" y="150" width="15" height="15" style="fill: rgb(236,203,164)" fill-opacity="1.000000"></rect>
<rect x="15" y="165" width="15" height="15" style="fill: rgb(207,178,143)" fill-opacity="1.000000"></rect>
<rect x="30" y="165" width="15" height="15" style="fill: rgb(213,184,148)" fill-opacity="1.000000"></rect>
<rect x="45" y="165" width="15" height="15" style="fill: rgb(224,193,155)" fill-opacity="1.000000"></rect>
<rect x="60" y="165" width="15" height="15" style="fill: rgb(236,203,164)" fill-opacity="1.000000"></rect>
<rect x="75" y="165" width="15" height="15" style="fill: rgb(255,219,191)" fill-opacity="1.000000"></rect>
<rect x="90" y="165" width="15" height="15" style="fill: rgb(255,219,191)" fill-opacity="1.000000"></rect>
<rect x="105" y="165" width="15" height="15" style="fill: rgb(115,146,171)" fill-opacity="1.000000"></rect>
<rect x="120" y="165" width="15" height="15" style="fill: rgb(255,219,191)" fill-opacity="1.000000"></rect>
<rect x="135" y="165" width="15" height="15" style="fill: rgb(255,219,191)" fill-opacity="1.000000"></rect>
<rect x="150" y="165" width="15" height="15" style="fill: rgb(255,219,191)" fill-opacity="1.000000"></rect>
<rect x="165" y="165" width="15" height="15" style="fill: rgb(255,219,191)" fill-opacity="1.000000"></rect>
<rect x="180" y="165" width="15" height="15" style="fill: rgb(115,146,171)" fill-opacity="1.000000"></rect>
<rect x="195" y="165" width="15" height="15" style="fill: rgb(255,219,191)" fill-opacity="1.000000"></rect>
<rect x="210" y="165" width="15" height="15" style="fill: rgb(255,219,191)" fill-opacity="1.000000"></rect>
<rect x="225" y="165" width="15" height="15" style="fill: rgb(236,203,164)" fill-opacity="1.000000"></rect>
<rect x="15" y="180" width="15" height="15" style="fill: rgb(207,178,143)" fill-opacity="1.000000"></rect>
<rect x="30" y="180" width="15" height="15" style="fill: rgb(213,184,148)" fill-opacity="1.000000"></rect>
<rect x="45" y="180" width="15" height="15" style="fill: rgb(224,193,155)" fill-opacity="1.000000"></rect>
<rect x="60" y="180" width="15" height="15" style="fill: rgb(236,203,164)" fill-opacity="1.000000"></rect>
<rect x="75" y="180" width="15" height="15" style="fill: rgb(255,219,191)" fill-opacity="1.000000"></rect>
<rect x="90" y="180" width="15" height="15" style="fill: rgb(255,219,191)" fill-opacity="1.000000"></rect>
<rect x="105" y="180" width="15" height="15" style="fill: rgb(255,219,191)" fill-opacity="1.000000"></rect>
<rect x="120" y="180" width="15" height="15" style="fill: rgb(255,219,191)" fill-opacity="1.000000"></rect>
<rect x="135" y="180" width="15" height="15" style="fill: rgb(255,219,191)" fill-opacity="1.000000"></rect>
<rect x="150" y="180" width="15" height="15" style="fill: rgb(255,219,191)" fill-opacity="1.000000"></rect>
<rect x="165" y="180" width="15" height="15" style="fill: rgb(255,219,191)" fill-opacity="1.000000"></rect>
<rect x="180" y="180" width="15" height="15" style="fill: rgb(255,219,191)" fill-opacity="1.000000"></rect>
<rect x="195" y="180" width="15" height="15" style="fill: rgb(255,219,191)" fill-opacity="1.000000"></rect>
<rect x="210" y="180" width="15" height="15" style="fill: rgb(255,219,191)" fill-opacity="1.000000"></rect>
<rect x="225" y="180" width="15" height="15" style="fill: rgb(236,203,164)" fill-opacity="1.000000"></rect>
<rect x="15" y="195" width="15" height="15" style="fill: rgb(207,178,143)" fill-opacity="1.000000"></rect>
<rect x="30" y="195" width="15" height="15" style="fill: rgb(213,184,148)" fill-opacity="1.000000"></rect>
<rect x="45" y="195" width="15" height="15" style="fill: rgb(224,193,155)" fill-opacity="1.000000"></rect>
<rect x="60" y="195" width="15" height="15" style="fill: rgb(236,203,164)" fill-opacity="1.000000"></rect>
<rect x="75" y="195" width="15" height="15" style="fill: rgb(255,219,191)" fill-opacity="1.000000"></rect>
<rect x="90" y="195" width="15" height="15" style="fill: rgb(255,219,191)" fill-opacity="1.000000"></rect>
<rect x="105" y="195" width="15" height="15" style="fill: rgb(255,219,191)" fill-opacity="1.000000"></rect>
<rect x="120" y="195" width="15" height="15" style="fill: rgb(255,219,191)" fill-opacity="1.000000"></rect>
<rect x="135" y="195" width="15" height="15" style="fill: rgb(255,219,191)" fill-opacity="1.000000"></rect>
<rect x="150" y="195" width="15" height="15" style="fill: rgb(255,219,191)" fill-opacity="1.000000"></rect>
<rect x="165" y="195" width="15" height="15" style="fill: rgb(255,219,191)" fill-opacity="1.000000"></rect>
<rect x="180" y="195" width="15" height="15" style="fill: rgb(255,219,191)" fill-opacity="1.000000"></rect>
<rect x="195" y="195" width="15" height="15" style="fill: rgb(255,219,191)" fill-opacity="1.000000"></rect>
<rect x="210" y="195" width="15" height="15" style="fill: rgb(255,219,191)" fill-opacity="1.000000"></rect>
<rect x="225" y="195" width="15" height="15" style="fill: rgb(236,203,164)" fill-opacity="1.000000"></rect>
<rect x="15" y="210" width="15" height="15" style="fill: rgb(207,178,143)" fill-opacity="1.000000"></rect>
<rect x="30" y="210" width="15" height="15" style="fill: rgb(213,184,148)" fill-opacity="1.000000"></rect>
<rect x="45" y="210" width="15" height="15" style="fill: rgb(224,193,155)" fill-opacity="1.000000"></rect>
<rect x="60" y="210" width="15" height="15" style="fill: rgb(236,203,164)" fill-opacity="1.000000"></rect>
<rect x="75" y="210" width="15" height="15" style="fill: rgb(237,204,177)" fill-opacity="1.000000"></rect>
<rect x="90" y="210" width="15" height="15" style="fill: rgb(255,219,191)" fill-opacity="1.000000"></rect>
<rect x="105" y="210" width="15" height="15" style="fill: rgb(255,219,191)" fill-opacity="1.000000"></rect>
<rect x="120" y="210" width="15" height="15" style="fill: rgb(255,219,191)" fill-opacity="1.000000"></rect>
<rect x="135" y="210" width="15" height="15" style="fill: rgb(255,219,191)" fill-opacity="1.000000"></rect>
<rect x="150" y="210" width="15" height="15" style="fill: rgb(255,219,191)" fill-opacity="1.000000"></rect>
<rect x="165" y="210" width="15" height="15" style="fill: rgb(255,219,191)" fill-opacity="1.000000"></rect>
<rect x="180" y="210" width="15" height="15" style="fill: rgb(255,219,191)" fill-opacity="1.000000"></rect>
<rect x="195" y="210" width="15" height="15" style="fill: rgb(255,219,191)" fill-opacity="1.000000"></rect>
<rect x="210" y="210" width="15" height="15" style="fill: rgb(236,203,164)" fill-opacity="1.000000"></rect>
<rect x="225" y="210" width="15" height="15" style="fill: rgb(236,203,164)" fill-opacity="1.000000"></rect>
<rect x="15" y="225" width="15" height="15" style="fill: rgb(207,178,143)" fill-opacity="1.000000"></rect>
<rect x="30" y="225" width="15" height="15" style="fill: rgb(213,184,148)" fill-opacity="1.000000"></rect>
<rect x="45" y="225" width="15" height="15" style="fill: rgb(224,193,155)" fill-opacity="1.000000"></rect>
<rect x="60" y="225" width="15" height="15" style="fill: rgb(236,203,164)" fill-opacity="1.000000"></rect>
<rect x="75" y="225" width="15" height="15" style="fill: rgb(237,204,177)" fill-opacity="1.000000"></rect>
<rect x="90" y="225" width="15" height="15" style="fill: rgb(237,204,177)" fill-opacity="1.000000"></rect>
<rect x="105" y="225" width="15" height="15" style="fill: rgb(255,219,191)" fill-opacity="1.000000"></rect>
<rect x="120" y="225" width="15" height="15" style="fill: rgb(255,219,191)" fill-opacity="1.000000"></rect>
<rect x="135" y="225" width="15" height="15" style="fill: rgb(255,219,191)" fill-opacity="1.000000"></rect>
<rect x="150" y="225" width="15" height="15" style="fill: rgb(255,219,191)" fill-opacity="1.000000"></rect>
<rect x="165" y="225" width="15" height="15" style="fill: rgb(255,219,191)" fill-opacity="1.000000"></rect>
<rect x="180" y="225" width="15" height="15" style="fill: rgb(255,219,191)" fill-opacity="1.000000"></rect>
<rect x="195" y="225" width="15" height="15" style="fill: rgb(236,203,164)" fill-opacity="1.000000"></rect>
<rect x="210" y="225" width="15" height="15" style="fill: rgb(236,203,164)" fill-opacity="1.000000"></rect>
<rect x="225" y="225" width="15" height="15" style="fill: rgb(236,203,164)" fill-opacity="1.000000"></rect>
<rect x="15" y="240" width="15" height="15" style="fill: rgb(207,178,143)" fill-opacity="1.000000"></rect>
<rect x="30" y="240" width="15" height="15" style="fill: rgb(213,184,148)" fill-opacity="1.000000"></rect>
<rect x="45" y="240" width="15" height="15" style="fill: rgb(224,193,155)" fill-opacity="1.000000"></rect>
<rect x="60" y="240" width="15" height="15" style="fill: rgb(236,203,164)" fill-opacity="1.000000"></rect>
<rect x="75" y="240" width="15" height="15" style="fill: rgb(178,153,123)" fill-opacity="1.000000"></rect>
<rect x="90" y="240" width="15" height="15" style="fill: rgb(237,204,177)" fill-opacity="1.000000"></rect>
<rect x="105" y="240" width="15" height="15" style="fill: rgb(237,204,177)" fill-opacity="1.000000"></rect>
<rect x="120" y="240" width="15" height="15" style="fill: rgb(255,219,191)" fill-opacity="1.000000"></rect>
<rect x="135" y="240" width="15" height="15" style="fill: rgb(255,219,191)" fill-opacity="1.000000"></rect>
<rect x="150" y="240" width="15" height="15" style="fill: rgb(255,219,191)" fill-opacity="1.000000"></rect>
<rect x="165" y="240" width="15" height="15" style="fill: rgb(255,219,191)" fill-opacity="1.000000"></rect>
<rect x="180" y="240" width="15" height="15" style="fill: rgb(178,153,123)" fill-opacity="1.000000"></rect>
<rect x="195" y="240" width="15" height="15" style="fill: rgb(236,203,164)" fill-opacity="1.000000"></rect>
<rect x="210" y="240" width="15" height="15" style="fill: rgb(236,203,164)" fill-opacity="1.000000"></rect>
<rect x="225" y="240" width="15" height="15" style="fill: rgb(236,203,164)" fill-opacity="1.000000"></rect>
<rect x="15" y="255" width="15" height="15" style="fill: rgb(207,178,143)" fill-opacity="1.000000"></rect>
<rect x="30" y="255" width="15" height="15" style="fill: rgb(213,184,148)" fill-opacity="1.000000"></rect>
<rect x="45" y="255" width="15" height="15" style="fill: rgb(224,193,155)" fill-opacity="1.000000"></rect>
<rect x="60" y="255" width="15" height="15" style="fill: rgb(236,203,164)" fill-opacity="1.000000"></rect>
<rect x="75" y="255" width="15" height="15" style="fill: rgb(178,153,123)" fill-opacity="1.000000"></rect>
<rect x="90" y="255" width="15" height="15" style="fill: rgb(7,10,13)" fill-opacity="1.000000"></rect>
<rect x="105" y="255" width="15" height="15" style="fill: rgb(60,65,69)" fill-opacity="1.000000"></rect>
<rect x="120" y="255" width="15" height="15" style="fill: rgb(60,65,69)" fill-opacity="1.000000"></rect>
<rect x="135" y="255" width="15" height="15" style="fill: rgb(255,255,255)" fill-opacity="1.000000"></rect>
<rect x="150" y="255" width="15" height="15" style="fill: rgb(255,255,255)" fill-opacity="1.000000"></rect>
<rect x="165" y="255" width="15" height="15" style="fill: rgb(60,65,69)" fill-opacity="1.000000"></rect>
<rect x="180" y="255" width="15" height="15" style="fill: rgb(60,65,69)" fill-opacity="1.000000"></rect>
<rect x="195" y="255" width="15" height="15" style="fill: rgb(236,203,164)" fill-opacity="1.000000"></rect>
<rect x="210" y="255" width="15" height="15" style="fill: rgb(236,203,164)" fill-opacity="1.000000"></rect>
<rect x="225" y="255" width="15" height="15" style="fill: rgb(236,203,164)" fill-opacity="1.000000"></rect>
<rect x="30" y="270" width="15" height="15" style="fill: rgb(213,184,148)" fill-opacity="1.000000"></rect>
<rect x="45" y="270" width="15" height="15" style="fill: rgb(224,193,155)" fill-opacity="1.000000"></rect>
<rect x="60" y="270" width="15" height="15" style="fill: rgb(236,203,164)" fill-opacity="1.000000"></rect>
<rect x="75" y="270" width="15" height="15" style="fill: rgb(7,10,13)" fill-opacity="1.000000"></rect>
<rect x="90" y="270" width="15" height="15" style="fill: rgb(28,28,28)" fill-opacity="1.000000"></rect>
<rect x="105" y="270" width="15" height="15" style="fill: rgb(60,65,69)" fill-opacity="1.000000"></rect>
<rect x="120" y="270" width="15" height="15" style="fill: rgb(60,65,69)" fill-opacity="1.000000"></rect>
<rect x="135" y="270" width="15" height="15" style="fill: rgb(255,255,255)" fill-opacity="1.000000"></rect>
<rect x="150" y="270" width="15" height="15" style="fill: rgb(255,255,255)" fill-opacity="1.000000"></rect>
<rect x="165" y="270" width="15" height="15" style="fill: rgb(60,65,69)" fill-opacity="1.000000"></rect>
<rect x="180" y="270" width="15" height="15" style="fill: rgb(60,65,69)" fill-opacity="1.000000"></rect>
<rect x="195" y="270" width="15" height="15" style="fill: rgb(236,203,164)" fill-opacity="1.000000"></rect>
<rect x="210" y="270" width="15" height="15" style="fill: rgb(236,203,164)" fill-opacity="1.000000"></rect>
<rect x="45" y="285" width="15" height="15" style="fill: rgb(224,193,155)" fill-opacity="1.000000"></rect>
<rect x="60" y="285" width="15" height="15" style="fill: rgb(236,203,164)" fill-opacity="1.000000"></rect>
<rect x="75" y="285" width="15" height="15" style="fill: rgb(28,28,28)" fill-opacity="1.000000"></rect>
<rect x="90" y="285" width="15" height="15" style="fill: rgb(28,28,28)" fill-opacity="1.000000"></rect>
<rect x="105" y="285" width="15" height="15" style="fill: rgb(28,28,28)" fill-opacity="1.000000"></rect>
<rect x="120" y="285" width="15" height="15" style="fill: rgb(60,65,69)" fill-opacity="1.000000"></rect>
<rect x="135" y="285" width="15" height="15" style="fill: rgb(255,255,255)" fill-opacity="1.000000"></rect>
<rect x="150" y="285" width="15" height="15" style="fill: rgb(255,255,255)" fill-opacity="1.000000"></rect>
<rect x="165" y="285" width="15" height="15" style="fill: rgb(60,65,69)" fill-opacity="1.000000"></rect>
<rect x="180" y="285" width="15" height="15" style="fill: rgb(28,28,28)" fill-opacity="1.000000"></rect>
<rect x="195" y="285" width="15" height="15" style="fill: rgb(236,203,164)" fill-opacity="1.000000"></rect>
<rect x="60" y="300" width="15" height="15" style="fill: rgb(7,10,13)" fill-opacity="1.000000"></rect>
<rect x="75" y="300" width="15" height="15" style="fill: rgb(28,28,28)" fill-opacity="1.000000"></rect>
<rect x="90" y="300" width="15" height="15" style="fill: rgb(28,28,28)" fill-opacity="1.000000"></rect>
<rect x="105" y="300" width="15" height="15" style="fill: rgb(28,28,28)" fill-opacity="1.000000"></rect>
<rect x="120" y="300" width="15" height="15" style="fill: rgb(28,28,28)" fill-opacity="1.000000"></rect>
<rect x="135" y="300" width="15" height="15" style="fill: rgb(255,255,255)" fill-opacity="1.000000"></rect>
<rect x="150" y="300" width="15" height="15" style="fill: rgb(255,255,255)" fill-opacity="1.000000"></rect>
<rect x="165" y="300" width="15" height="15" style="fill: rgb(28,28,28)" fill-opacity="1.000000"></rect>
<rect x="180" y="300" width="15" height="15" style="fill: rgb(28,28,28)" fill-opacity="1.000000"></rect>
<rect x="195" y="300" width="15" height="15" style="fill: rgb(28,28,28)" fill-opacity="1.000000"></rect>
<rect x="60" y="315" width="15" height="15" style="fill: rgb(7,10,13)" fill-opacity="1.000000"></rect>
<rect x="75" y="315" width="15" height="15" style="fill: rgb(28,28,28)" fill-opacity="1.000000"></rect>
<rect x="90" y="315" width="15" height="15" style="fill: rgb(7,10,13)" fill-opacity="1.000000"></rect>
<rect x="105" y="315" width="15" height="15" style="fill: rgb(28,28,28)" fill-opacity="1.000000"></rect>
<rect x="120" y="315" width="15" height="15" style="fill: rgb(28,28,28)" fill-opacity="1.000000"></rect>
<rect x="135" y="315" width="15" height="15" style="fill: rgb(255,255,255)" fill-opacity="1.000000"></rect>
<rect x="150" y="315" width="15" height="15" style="fill: rgb(255,255,255)" fill-opacity="1.000000"></rect>
<rect x="165" y="315" width="15" height="15" style="fill: rgb(28,28,28)" fill-opacity="1.000000"></rect>
<rect x="180" y="315" width="15" height="15" style="fill: rgb(28,28,28)" fill-opacity="1.000000"></rect>
<rect x="195" y="315" width="15" height="15" style="fill: rgb(28,28,28)" fill-opacity="1.000000"></rect>
<rect x="60" y="330" width="15" height="15" style="fill: rgb(7,10,13)" fill-opacity="1.000000"></rect>
<rect x="75" y="330" width="15" height="15" style="fill: rgb(28,28,28)" fill-opacity="1.000000"></rect>
<rect x="90" y="330" width="15" height="15" style="fill: rgb(7,10,13)" fill-opacity="1.000000"></rect>
<rect x="105" y="330" width="15" height="15" style="fill: rgb(28,28,28)" fill-opacity="1.000000"></rect>
<rect x="120" y="330" width="15" height="15" style="fill: rgb(28,28,28)" fill-opacity="1.000000"></rect>
<rect x="135" y="330" width="15" height="15" style="fill: rgb(255,255,255)" fill-opacity="1.000000"></rect>
<rect x="150" y="330" width="15" height="15" style="fill: rgb(255,255,255)" fill-opacity="1.000000"></rect>
<rect x="165" y="330" width="15" height="15" style="fill: rgb(28,28,28)" fill-opacity="1.000000"></rect>
<rect x="180" y="330" width="15" height="15" style="fill: rgb(28,28,28)" fill-opacity="1.000000"></rect>
<rect x="195" y="330" width="15" height="15" style="fill: rgb(28,28,28)" fill-opacity="1.000000"></rect>
<rect x="60" y="345" width="15" height="15" style="fill: rgb(7,10,13)" fill-opacity="1.000000"></rect>
<rect x="75" y="345" width="15" height="15" style="fill: rgb(28,28,28)" fill-opacity="1.000000"></rect>
<rect x="90" y="345" width="15" height="15" style="fill: rgb(7,10,13)" fill-opacity="1.000000"></rect>
<rect x="105" y="345" width="15" height="15" style="fill: rgb(28,28,28)" fill-opacity="1.000000"></rect>
<rect x="120" y="345" width="15" height="15" style="fill: rgb(28,28,28)" fill-opacity="1.000000"></rect>
<rect x="135" y="345" width="15" height="15" style="fill: rgb(255,255,255)" fill-opacity="1.000000"></rect>
<rect x="150" y="345" width="15" height="15" style="fill: rgb(255,255,255)" fill-opacity="1.000000"></rect>
<rect x="165" y="345" width="15" height="15" style="fill: rgb(28,28,28)" fill-opacity="1.000000"></rect>
<rect x="180" y="345" width="15" height="15" style="fill: rgb(28,28,28)" fill-opacity="1.000000"></rect>
<rect x="195" y="345" width="15" height="15" style="fill: rgb(28,28,28)" fill-opacity="1.000000"></rect>
<rect x="60" y="360" width="15" height="15" style="fill: rgb(7,10,13)" fill-opacity="1.000000"></rect>
<rect x="75" y="360" width="15" height="15" style="fill: rgb(28,28,28)" fill-opacity="1.000000"></rect>
<rect x="90" y="360" width="15" height="15" style="fill: rgb(7,10,13)" fill-opacity="1.000000"></rect>
<rect x="105" y="360" width="15" height="15" style="fill: rgb(28,28,28)" fill-opacity="1.000000"></rect>
<rect x="120" y="360" width="15" height="15" style="fill: rgb(28,28,28)" fill-opacity="1.000000"></rect>
<rect x="135" y="360" width="15" height="15" style="fill: rgb(255,255,255)" fill-opacity="1.000000"></rect>
<rect x="150" y="360" width="15" height="15" style="fill: rgb(255,255,255)" fill-opacity="1.000000"></rect>
<rect x="165" y="360" width="15" height="15" style="fill: rgb(28,28,28)" fill-opacity="1.000000"></rect>
<rect x="180" y="360" width="15" height="15" style="fill: rgb(28,28,28)" fill-opacity="1.000000"></rect>
<rect x="195" y="360" width="15" height="15" style="fill: rgb(255,255,255)" fill-opacity="1.000000"></rect>
<rect x="60" y="375" width="15" height="15" style="fill: rgb(237,204,177)" fill-opacity="1.000000"></rect>
<rect x="75" y="375" width="15" height="15" style="fill: rgb(255,219,191)" fill-opacity="1.000000"></rect>
<rect x="90" y="375" width="15" height="15" style="fill: rgb(7,10,13)" fill-opacity="1.000000"></rect>
<rect x="105" y="375" width="15" height="15" style="fill: rgb(28,28,28)" fill-opacity="1.000000"></rect>
<rect x="120" y="375" width="15" height="15" style="fill: rgb(28,28,28)" fill-opacity="1.000000"></rect>
<rect x="135" y="375" width="15" height="15" style="fill: rgb(60,65,69)" fill-opacity="1.000000"></rect>
<rect x="150" y="375" width="15" height="15" style="fill: rgb(60,65,69)" fill-opacity="1.000000"></rect>
<rect x="165" y="375" width="15" height="15" style="fill: rgb(28,28,28)" fill-opacity="1.000000"></rect>
<rect x="180" y="375" width="15" height="15" style="fill: rgb(28,28,28)" fill-opacity="1.000000"></rect>
<rect x="195" y="375" width="15" height="15" style="fill: rgb(255,219,191)" fill-opacity="1.000000"></rect>
<rect x="60" y="390" width="15" height="15" style="fill: rgb(237,204,177)" fill-opacity="1.000000"></rect>
<rect x="75" y="390" width="15" height="15" style="fill: rgb(255,219,191)" fill-opacity="1.000000"></rect>
<rect x="90" y="390" width="15" height="15" style="fill: rgb(7,10,13)" fill-opacity="1.000000"></rect>
<rect x="105" y="390" width="15" height="15" style="fill: rgb(28,28,28)" fill-opacity="1.000000"></rect>
<rect x="120" y="390" width="15" height="15" style="fill: rgb(28,28,28)" fill-opacity="1.000000"></rect>
<rect x="165" y="390" width="15" height="15" style="fill: rgb(28,28,28)" fill-opacity="1.000000"></rect>
<rect x="180" y="390" width="15" height="15" style="fill: rgb(28,28,28)" fill-opacity="1.000000"></rect>
<rect x="195" y="390" width="15" height="15" style="fill: rgb(255,219,191)" fill-opacity="1.000000"></rect>
<rect x="90" y="405" width="15" height="15" style="fill: rgb(45,49,52)" fill-opacity="1.000000"></rect>
<rect x="105" y="405" width="15" height="15" style="fill: rgb(60,65,69)" fill-opacity="1.000000"></rect>
<rect x="165" y="405" width="15" height="15" style="fill: rgb(45,49,52)" fill-opacity="1.000000"></rect>
<rect x="180" y="405" width="15" height="15" style="fill: rgb(60,65,69)" fill-opacity="1.000000"></rect>
<rect x="90" y="420" width="15" height="15" style="fill: rgb(45,49,52)" fill-opacity="1.000000"></rect>
<rect x="105" y="420" width="15" height="15" style="fill: rgb(60,65,69)" fill-opacity="1.000000"></rect>
<rect x="165" y="420" width="15" height="15" style="fill: rgb(45,49,52)" fill-opacity="1.000000"></rect>
<rect x="180" y="420" width="15" height="15" style="fill: rgb(60,65,69)" fill-opacity="1.000000"></rect>
<rect x="90" y="435" width="15" height="15" style="fill: rgb(45,49,52)" fill-opacity="1.000000"></rect>
<rect x="105" y="435" width="15" height="15" style="fill: rgb(60,65,69)" fill-opacity="1.000000"></rect>
<rect x="165" y="435" width="15" height="15" style="fill: rgb(45,49,52)" fill-opacity="1.000000"></rect>
<rect x="180" y="435" width="15" height="15" style="fill: rgb(60,65,69)" fill-opacity="1.000000"></rect>
<rect x="90" y="450" width="15" height="15" style="fill: rgb(45,49,52)" fill-opacity="1.000000"></rect>
<rect x="105" y="450" width="15" height="15" style="fill: rgb(60,65,69)" fill-opacity="1.000000"></rect>
<rect x="165" y="450" width="15" height="15" style="fill: rgb(45,49,52)" fill-opacity="1.000000"></rect>
<rect x="180" y="450" width="15" height="15" style="fill: rgb(60,65,69)" fill-opacity="1.000000"></rect>
<rect x="90" y="465" width="15" height="15" style="fill: rgb(129,144,156)" fill-opacity="1.000000"></rect>
<rect x="105" y="465" width="15" height="15" style="fill: rgb(152,164,174)" fill-opacity="1.000000"></rect>
<rect x="165" y="465" width="15" height="15" style="fill: rgb(129,144,156)" fill-opacity="1.000000"></rect>
<rect x="180" y="465" width="15" height="15" style="fill: rgb(152,164,174)" fill-opacity="1.000000"></rect>
</svg>
